<?xml version="1.0" standalone="no"?>
<!DOCTYPE svg PUBLIC "-//W3C//DTD SVG 20010904//EN"
 "http://www.w3.org/TR/2001/REC-SVG-20010904/DTD/svg10.dtd">
<svg version="1.0" xmlns="http://www.w3.org/2000/svg"
 width="700.000000pt" height="700.000000pt" viewBox="0 0 700.000000 700.000000"
 preserveAspectRatio="xMidYMid meet">
<metadata>
Created by potrace 1.14, written by Peter Selinger 2001-2017
</metadata>
<g transform="translate(0.000000,700.000000) scale(0.100000,-0.100000)"
fill="#000000" stroke="none">
<path d="M3299 6616 c-2 -2 -48 -6 -102 -10 -557 -37 -1153 -231 -1593 -521
-102 -67 -228 -157 -244 -175 -3 -3 -27 -23 -55 -45 -63 -50 -265 -251 -332
-330 -431 -512 -661 -1179 -666 -1934 -2 -326 19 -536 80 -813 l26 -117 -51
-153 c-82 -248 -100 -328 -108 -493 -12 -218 62 -414 227 -599 219 -247 531
-337 825 -237 33 11 61 16 64 12 3 -4 52 -42 110 -83 717 -513 1675 -721 2605
-567 673 112 1289 420 1735 869 450 454 714 1010 807 1700 14 104 18 202 18
430 0 162 -3 316 -7 343 -6 38 -4 51 10 65 96 97 191 266 215 387 24 121 9
318 -37 470 -2 6 -4 12 -4 15 -7 50 -280 727 -332 821 -4 9 -33 76 -63 150
-57 140 -129 293 -150 319 -63 80 -191 84 -258 9 -36 -41 -110 -192 -165 -337
-13 -35 -26 -68 -30 -73 -3 -5 -39 22 -79 60 -221 210 -517 404 -830 544 -298
134 -706 243 -1020 273 -38 3 -79 8 -90 11 -24 5 -501 14 -506 9z"/>
</g>
</svg>
